# xmcd
#
# Track frame offsets:
#  150
#  12903
#  28831
#  50912
#  66851
#  84518
#  98626
#  115082
#  129423
#  151015
#  173099
#  194189
#
# Disc length: 2787 seconds
#
# Revision: 0
# Processed by: cddbd v1.5.1PL2 Copyright (c) Steve Scherf et al.
# Submitted via: AltoMP3_Maker 3.0
#
DISCID=9c0ae10c
DTITLE=McKay Brothers - Cold Beer and Hot Tamales
DYEAR=1900
DGENRE=
TTITLE0=Lock and Key
TTITLE1=Port Artur
TTITLE2=Making License Plates
TTITLE3=Bottle of Fire
TTITLE4=Texas Heart, Mexican Soul
TTITLE5=7th Day
TTITLE6=Accompaneme
TTITLE7=A Warmer Place to Sleep
TTITLE8=Spirit Bird
TTITLE9=Bandera Style(Whiskey, Smoke and Beer)
TTITLE10=Silicone Baby
TTITLE11=The Disappearing Texas
EXTD=
EXTT0=
EXTT1=
EXTT2=
EXTT3=
EXTT4=
EXTT5=
EXTT6=
EXTT7=
EXTT8=
EXTT9=
EXTT10=
EXTT11=
PLAYORDER=
